<svg width="79" height="75" viewBox="0 0 79 75" fill="none" xmlns="http://www.w3.org/2000/svg">
<path fill-rule="evenodd" clip-rule="evenodd" d="M35.6074 28.0564C28.1813 21.952 22.164 14.6825 17.6422 6.21291C16.7379 4.52595 14.6336 3.88246 12.9292 4.78681C11.2423 5.69115 10.5987 7.79554 11.503 9.49989C16.4769 18.7695 23.051 26.7347 31.1901 33.4303C32.6684 34.6477 34.877 34.439 36.0944 32.9607C37.3118 31.4651 37.0856 29.2738 35.6074 28.0564Z" fill="#F5FA93"/>
<path fill-rule="evenodd" clip-rule="evenodd" d="M31.6475 4.28254C32.0301 11.3086 32.378 18.3347 32.8128 25.3608C32.9345 27.2738 34.5867 28.7347 36.4997 28.613C38.4127 28.4912 39.8736 26.8391 39.7519 24.926C39.3171 17.9173 38.9692 10.9087 38.5866 3.88257C38.4822 1.97474 36.8301 0.50517 34.917 0.612996C33.004 0.720822 31.5257 2.36428 31.6475 4.28254Z" fill="#F5FA93"/>
<path fill-rule="evenodd" clip-rule="evenodd" d="M57.4667 5.70873C53.0145 12.4218 47.9712 18.613 42.8929 24.8739C41.6756 26.3695 41.9015 28.5609 43.3971 29.7609C44.8928 30.9783 47.0842 30.7522 48.2842 29.2565C53.5016 22.8391 58.6842 16.4565 63.2755 9.55214C64.3364 7.95214 63.8841 5.79569 62.2841 4.73483C60.7015 3.67396 58.5275 4.10873 57.4667 5.70873Z" fill="#F5FA93"/>
<path fill-rule="evenodd" clip-rule="evenodd" d="M74.7128 30.6652C62.6433 31.2043 49.8259 31.2217 37.7563 30.4565C35.8433 30.3521 34.1911 31.7956 34.0694 33.7261C33.9476 35.6391 35.4085 37.2913 37.3215 37.413C49.6346 38.1782 62.7129 38.1608 75.026 37.6217C76.939 37.5347 78.4345 35.9 78.3476 33.987C78.2606 32.0739 76.6259 30.5782 74.7128 30.6652Z" fill="#F5FA93"/>
<path fill-rule="evenodd" clip-rule="evenodd" d="M31.181 32.8737C38.6245 41.9867 46.3289 50.9259 53.2333 60.4563C54.3637 62.0042 56.5377 62.3519 58.1029 61.2215C59.6507 60.091 59.9985 57.917 58.868 56.3692C51.8767 46.7344 44.0855 37.691 36.5551 28.4736C35.3377 26.9953 33.1463 26.7693 31.668 27.9867C30.1723 29.2041 29.9636 31.3954 31.181 32.8737Z" fill="#F5FA93"/>
<path fill-rule="evenodd" clip-rule="evenodd" d="M33.4351 35.5179C35.383 45.0136 35.9221 54.0919 36.0612 63.7093C36.0786 65.6223 37.6613 67.1527 39.5743 67.1353C41.5048 67.1005 43.0351 65.5353 43.0004 63.6048C42.8612 53.5353 42.2874 44.0571 40.2526 34.1092C39.8526 32.231 38.0265 31.0135 36.1309 31.4135C34.2526 31.7961 33.0351 33.6397 33.4351 35.5179Z" fill="#F5FA93"/>
<path fill-rule="evenodd" clip-rule="evenodd" d="M33.7491 34.7531C28.1143 46.0226 25.21 58.5444 19.1752 69.5705C18.2535 71.2401 18.8794 73.3617 20.5664 74.2835C22.2533 75.2052 24.3578 74.5791 25.2796 72.9095C31.3491 61.8138 34.2882 49.2226 39.9751 37.8661C40.8273 36.1443 40.1316 34.0574 38.4273 33.1878C36.7055 32.3356 34.6187 33.0313 33.7491 34.7531Z" fill="#F5FA93"/>
<path fill-rule="evenodd" clip-rule="evenodd" d="M36.8501 32.1956C25.6327 34.1782 14.4327 35.0825 3.14579 36.4217C1.23274 36.6477 -0.123778 38.3695 0.102309 40.2826C0.328396 42.1956 2.0503 43.5521 3.96334 43.3261C15.372 41.9869 26.7111 41.0478 38.0677 39.0478C39.9459 38.6999 41.2155 36.8912 40.885 35.013C40.5372 33.1173 38.7458 31.8478 36.8501 32.1956Z" fill="#F5FA93"/>
<path fill-rule="evenodd" clip-rule="evenodd" d="M44.6555 26.9096C42.3425 26.8053 40.1512 26.6487 37.8903 26.3182C35.9772 26.04 34.2207 27.3617 33.9424 29.2574C33.6642 31.153 34.9858 32.927 36.8815 33.2052C39.3858 33.5705 41.8033 33.7444 44.3424 33.8487C46.2554 33.9357 47.8901 32.4574 47.9597 30.5269C48.0467 28.6139 46.5686 26.9966 44.6555 26.9096Z" fill="#F5FA93"/>
</svg>
