<svg width="101" height="21" viewBox="0 0 101 21" fill="none" xmlns="http://www.w3.org/2000/svg">
<path fill-rule="evenodd" clip-rule="evenodd" d="M55.0777 11.5011C43.4399 10.9576 31.8022 9.61352 20.2133 7.42493C13.8836 6.22983 6.53217 6.373 0.391445 2.29971C-0.092305 1.97829 0.00418397 0.999409 0.0147577 0.902983C0.0359053 0.701363 0.124462 0.0322685 0.511727 0.000125885C0.542126 -0.00279617 0.749641 0.0555782 0.830266 0.0789547C2.63838 0.604918 4.44121 1.21857 6.25065 1.71531C12.5011 3.43637 18.7673 4.73374 25.0442 5.87333C33.3763 7.38693 41.7785 8.19635 50.1331 8.82459C54.7076 9.17231 59.3905 8.71356 63.9808 9.42361C65.662 9.44407 67.3459 9.44693 69.0298 9.43524C76.0706 9.37972 83.1035 8.78948 90.135 7.98008C92.3952 7.72003 94.1214 7.43951 96.3366 7.24958C97.1785 7.17653 98.5148 7.12685 99.4426 7.09471C99.5775 7.08886 99.9158 7.08308 100.063 7.08015C100.082 7.07431 100.102 7.0743 100.122 7.0743C100.193 7.07723 100.229 7.08601 100.236 7.08893C100.739 7.25256 100.693 8.29863 100.678 8.46226C100.676 8.49732 100.602 9.3827 100.171 9.41484C100.106 9.42068 99.6396 9.42647 99.4598 9.43232C98.5386 9.46446 97.2129 9.51414 96.3775 9.58427C94.1676 9.7742 92.4454 10.0547 90.1893 10.3148C83.1418 11.1242 76.0918 11.7173 69.0338 11.7728C68.209 11.7787 67.3856 11.7816 66.5635 11.7787C66.5027 11.954 66.4088 12.1148 66.2595 12.1995C66.1233 12.2784 65.1453 12.3543 64.7673 12.4245C62.0366 12.9183 62.1172 12.8978 59.1116 13.304C54.5596 13.9205 53.867 14.0608 49.1339 14.3209C43.3408 14.6394 37.5464 14.727 31.7519 14.7358C40.0735 15.6241 48.4506 15.5043 56.7603 15.7731C60.5179 15.8929 64.2742 16.1091 68.0319 16.0449C69.3219 16.0215 70.6106 15.9163 71.9006 15.8812C72.1676 15.8724 72.8535 15.7702 72.9527 15.8199C73.2804 15.9806 73.3505 16.5212 73.3703 16.7841C73.3809 16.9361 73.4285 17.836 72.9408 18.1516C70.7639 19.5542 66.7472 19.4987 64.6324 19.7763C52.7898 21.3249 40.9234 20.8925 29.0755 19.7851C24.1838 19.3292 19.3079 18.6776 14.4361 17.6256C12.7324 17.2604 11.0247 16.9477 9.32761 16.4568C9.05269 16.3779 8.43281 16.264 8.13278 16.1442C7.97814 16.08 7.86843 15.9864 7.81689 15.9251C7.57633 15.6241 7.53536 15.18 7.53404 14.8819C7.53272 14.6657 7.55783 13.8563 8.04422 13.6488C12.9914 11.507 18.3735 12.3427 23.3471 12.3719C31.9344 12.4186 40.5229 12.4567 49.1075 11.9833C52.0113 11.8226 53.3885 11.7086 55.0777 11.5011ZM57.5507 18.137C48.0765 18.7886 38.5919 18.3357 29.1191 17.4504C24.2472 16.9945 19.3912 16.3458 14.5392 15.2997C13.766 15.1332 12.9941 14.9783 12.2222 14.8118C15.927 14.2245 19.7454 14.6861 23.3445 14.7095L25.8148 14.7212C25.795 14.8322 25.7817 14.952 25.7778 15.0747C25.7553 15.7176 25.9734 16.2815 26.2642 16.3312C36.378 18.0289 46.6107 17.7835 56.7457 18.1107C57.014 18.1195 57.2823 18.1282 57.5507 18.137Z" fill="white"/>
</svg>
