<svg width="34" height="30" viewBox="0 0 34 30" fill="none" xmlns="http://www.w3.org/2000/svg">
<path fill-rule="evenodd" clip-rule="evenodd" d="M31.0217 11.8866C31.0155 11.6793 31.0167 11.4775 31.023 11.2881C31.0443 10.7184 31.3832 10.7203 31.4095 10.7211C31.4647 10.7231 31.7107 10.7474 31.7697 11.1916C31.7735 11.2181 31.7823 11.4098 31.7848 11.4838C31.7898 11.6414 31.7923 11.7964 31.7785 11.9519C31.791 12.2156 31.8186 12.487 31.8714 12.7424C31.9479 13.1193 32.0722 13.4672 32.2968 13.6525C32.6984 13.9859 33.2267 13.9723 33.6685 14.0571C33.853 14.0924 33.9935 14.3328 33.9998 14.623C34.0048 14.9134 33.8743 15.1668 33.6911 15.2196C33.1389 15.3792 32.5039 16.1638 32.0998 16.7956C31.9755 16.9898 31.8362 17.4522 31.6806 17.7483C31.5551 17.9856 31.4158 18.1446 31.284 18.2078C31.2326 18.2323 30.9477 18.3217 30.8197 17.8609C30.7846 17.7315 30.6603 17.0537 30.649 16.9765C30.5812 16.5337 30.4846 16.1381 30.2951 15.7859C30.1307 15.4806 29.9312 15.2139 29.6915 15.066C29.5948 15.0064 29.4944 14.9611 29.394 14.9144C29.3589 14.9078 29.2598 14.8881 29.2246 14.8695C29.1531 14.8323 29.1004 14.7738 29.0627 14.7156C28.9912 14.6054 28.9548 14.4738 28.9485 14.324C28.9435 14.2251 28.9523 14.1078 28.9975 13.9778C29.0314 13.8855 29.1079 13.7464 29.246 13.6562C29.3903 13.5619 29.7003 13.4723 29.7555 13.4489C30.1395 13.2873 30.516 13.0416 30.8109 12.6157C30.9577 12.4027 30.9916 12.1731 31.0217 11.8866ZM31.2677 13.5542C31.4158 14.0339 31.6367 14.4377 31.9441 14.692C32.0709 14.7977 32.2089 14.8779 32.352 14.9403C32.0571 15.2611 31.7835 15.6259 31.5664 15.964C31.4961 16.074 31.4196 16.252 31.338 16.4476C31.2426 15.9255 31.1021 15.4567 30.8711 15.0276C30.7344 14.7746 30.58 14.5434 30.4081 14.3506C30.7193 14.158 31.0142 13.9004 31.2677 13.5542Z" fill="white"/>
<path fill-rule="evenodd" clip-rule="evenodd" d="M23.1771 28.5497C26.0334 28.6576 28.9525 28.4399 31.6833 29.9656C31.8791 30.0754 32.0949 29.9146 32.1652 29.6107C32.2355 29.3047 32.1326 28.9674 31.9368 28.8576C29.1294 27.2888 26.1313 27.4829 23.1959 27.3731C22.9876 27.3653 22.8157 27.6222 22.8107 27.9457C22.8056 28.2713 22.97 28.5399 23.1771 28.5497Z" fill="white"/>
<path fill-rule="evenodd" clip-rule="evenodd" d="M22.9653 22.0294C23.85 20.7577 24.8151 19.804 25.9822 19.3318C26.183 19.2504 26.3035 18.9292 26.252 18.6149C26.1993 18.3005 25.9948 18.1115 25.7927 18.1928C24.5026 18.7147 23.4334 19.758 22.4557 21.1632C22.3026 21.3831 22.2926 21.7555 22.4332 21.9945C22.5737 22.2336 22.8122 22.2493 22.9653 22.0294Z" fill="white"/>
<path fill-rule="evenodd" clip-rule="evenodd" d="M20.5003 7.97826C20.9056 5.81033 21.7026 4.11423 22.9237 2.88956C23.0981 2.71425 23.1495 2.34988 23.0366 2.07671C22.9249 1.80334 22.6915 1.72392 22.517 1.89943C21.1366 3.28334 20.2355 5.19869 19.7774 7.64861C19.7197 7.96022 19.8339 8.28712 20.0334 8.37811C20.233 8.46911 20.4426 8.28987 20.5003 7.97826Z" fill="white"/>
<path fill-rule="evenodd" clip-rule="evenodd" d="M6.2663 4.96346C6.03037 5.40156 5.81954 5.87221 5.63882 6.37228C5.5334 6.66075 5.34767 7.3326 5.37905 7.81913C5.40289 8.18369 5.51332 8.4802 5.7342 8.65512C6.08685 8.93516 6.36922 8.90084 6.58633 8.7316C6.79465 8.56962 6.9603 8.25389 7.06321 7.82736C7.24644 7.06589 7.22511 5.91476 7.13224 5.22134C7.38323 4.82149 7.65807 4.45791 7.95048 4.13355C10.1994 1.64245 13.4987 2.57315 16.0375 6.29795C16.9273 7.60282 17.3502 10.3461 17.5724 13.3028C17.9225 17.9422 17.723 23.1239 17.6953 24.6419C17.6891 25.0414 17.7167 25.2783 17.7292 25.3255C17.7995 25.5865 17.925 25.6552 18.0116 25.6807C18.1333 25.716 18.23 25.6787 18.309 25.614C18.4144 25.5277 18.5023 25.3763 18.5424 25.1406C18.5625 25.0202 18.5688 24.8529 18.5663 24.6743C18.5638 24.5686 18.5475 24.4533 18.5613 24.3776C18.6592 23.8455 18.7771 23.3256 18.8913 22.8024C19.2753 21.0424 19.7736 19.3932 20.3245 17.7457C22.0802 12.5078 23.7744 6.97157 26.6521 2.98086C26.8077 2.76534 26.8228 2.39333 26.6847 2.15036C26.5467 1.90758 26.3082 1.88542 26.1526 2.10094C23.2059 6.18657 21.454 11.8373 19.6581 17.2001C19.2402 18.4462 18.8537 19.694 18.5211 20.9869C18.5512 18.0679 18.5061 14.1123 18.0907 10.8476C17.7957 8.51942 17.3025 6.53799 16.5533 5.4402C13.7209 1.28476 10.0237 0.394437 7.51501 3.17362C7.26778 3.44699 7.0331 3.74547 6.81097 4.06747C5.47819 0.430529 2.68839 -1.0124 0.219859 0.74802C0.0316133 0.88294 -0.0524674 1.2322 0.0341257 1.52753C0.120719 1.82286 0.3441 1.95326 0.532346 1.81834C2.70847 0.266771 5.17322 1.63538 6.2663 4.96346ZM6.45958 6.52602C6.40185 6.66506 6.34663 6.80704 6.29393 6.95196C6.25628 7.05354 6.1998 7.23042 6.16089 7.41947C6.14834 7.48516 6.13831 7.58851 6.13329 7.65166C6.17972 7.68617 6.21736 7.70421 6.25125 7.67813C6.30646 7.63479 6.33031 7.52673 6.35792 7.4124C6.41941 7.15766 6.45079 6.84057 6.45958 6.52602Z" fill="white"/>
</svg>
