<svg width="64" height="69" viewBox="0 0 64 69" fill="none" xmlns="http://www.w3.org/2000/svg">
<path fill-rule="evenodd" clip-rule="evenodd" d="M25.296 13.8131C25.1078 12.6986 24.966 11.5967 24.8744 10.4948C24.7363 8.84178 24.8217 7.17616 24.7727 5.52317C24.7514 4.82191 24.6673 2.99363 24.7012 2.73066C25.0086 0.439022 26.862 0.088347 27.4041 0.025734C27.6664 -0.0118338 30.3593 -0.312242 30.9403 2.66814C31.6531 6.31221 31.8815 9.98128 31.6292 13.5753C32.2178 16.6308 33.2242 19.6737 34.5531 22.4287C39.841 33.386 49.9174 34.4504 60.8346 34.3502C62.5136 34.3252 63.9078 35.64 63.9956 37.3055C64.0835 38.9836 62.8337 40.4362 61.1622 40.5864C55.0599 41.175 44.2329 46.0589 40.4897 51.1431C39.7067 52.2075 39.2512 54.7747 38.6489 57.2917C37.8081 60.7855 36.808 64.2417 35.6874 65.6943C35.5193 65.9197 33.4751 68.2239 32.8652 68.562C31.3996 69.3635 30.2263 68.9001 29.56 68.4743C28.8937 68.0485 28.1395 67.2095 27.8383 65.8195C27.5234 64.3669 27.7894 61.3864 27.7404 60.7478C27.5623 58.4311 27.098 53.8854 26.1506 49.9784C25.6399 47.8746 25.0952 45.9336 24.1943 44.9694C20.8589 41.4004 15.5257 41.9264 11.0346 42.515C10.5189 42.5776 10.0031 42.6528 9.48866 42.7154C7.66034 43.2538 5.71904 43.6545 3.66736 43.8924C0.569128 44.2556 0.0596926 41.4129 0.0320858 41.2251C-0.0256373 40.8119 -0.240239 38.6831 2.09504 37.8315C2.34977 37.7439 4.22956 37.3306 4.95361 37.1678C5.96251 36.9424 6.98268 36.7671 8.00664 36.6043C18.5838 33.3234 24.3285 24.1067 25.296 13.8131ZM28.9263 25.1963C32.9192 33.4361 38.9789 37.4183 46.1617 39.2215H46.1604C41.6756 41.5633 37.596 44.4936 35.4339 47.4364C34.6132 48.5509 33.8604 50.7924 33.1815 53.3094C32.8138 50.9677 32.3169 48.4757 31.6606 46.3468C30.914 43.9174 29.9088 41.9014 28.787 40.6993C26.6211 38.3826 23.9031 37.0927 20.9805 36.4541C24.4791 33.361 27.1319 29.504 28.9263 25.1963Z" fill="#F5FA93"/>
</svg>
